<svg id="SvgjsSvg1039" width="288" height="288" xmlns="http://www.w3.org/2000/svg" version="1.1" xmlns:xlink="http://www.w3.org/1999/xlink" xmlns:svgjs="http://svgjs.com/svgjs"><defs id="SvgjsDefs1040"></defs><g id="SvgjsG1041" transform="matrix(1,0,0,1,0,0)"><svg xmlns="http://www.w3.org/2000/svg" viewBox="0 0 24 24" width="288" height="288"><path d="M5.072 0A5.061 5.061 0 0 0 0 5.072v13.856A5.061 5.061 0 0 0 5.072 24h13.856A5.061 5.061 0 0 0 24 18.928V5.072A5.061 5.061 0 0 0 18.928 0H5.072zM5 6.998h12v1.998H5V6.998zm0 2.998h12V16.998H5.54c-.242 0-.54-.284-.54-.516V9.996zm1 .994v5.008h5V10.99H6zm6 .01v1h4v-1h-4zm-5 .992h3V15H7v-3.008zm11 .01h1v4.625c0 .174-.184.375-.5.375s-.5-.2-.5-.375v-4.625zm-6 1v1h4v-1h-4zm0 2v1h4v-1h-4z" fill="#a9dfbf" class="color000 svgShape"></path></svg></g></svg>